<svg xmlns="http://www.w3.org/2000/svg" width="17.973" height="23.364" viewBox="0 0 17.973 23.364"><defs><style>.a{fill:#3a2f2d;}</style></defs><path class="a" d="M26.547,3C21.744,3,17,6.2,17,11.383c0,3.3,1.855,5.166,2.976,5.166.465,0,.731-1.293.731-1.657,0-.436-1.11-1.362-1.11-3.174a6.326,6.326,0,0,1,6.571-6.43c3.188,0,5.548,1.812,5.548,5.141,0,2.486-1,7.147-4.226,7.147a2.08,2.08,0,0,1-2.162-1.992v-.058c0-1.769,1.236-3.484,1.236-5.306,0-3.1-4.4-2.536-4.4,1.207a5.49,5.49,0,0,0,.45,2.374c-.645,2.781-1.967,6.924-1.967,9.788,0,.886.126,1.754.209,2.641.159.177.079.159.324.068,2.36-3.228,2.273-3.862,3.343-8.088A3.8,3.8,0,0,0,27.771,19.9c4.971,0,7.2-4.845,7.2-9.212C34.973,6.033,30.956,3,26.547,3Z" transform="translate(-17 -3)"/></svg>