<svg xmlns="http://www.w3.org/2000/svg" width="28.953" height="23.517" viewBox="0 0 28.953 23.517"><defs><style>.a{fill:#3a2f2d;}</style></defs><path class="a" d="M27.168,8.861c.018.256.018.515.018.771,0,7.846-5.969,16.885-16.885,16.885A16.767,16.767,0,0,1,1.19,23.855a12.7,12.7,0,0,0,1.434.072,11.877,11.877,0,0,0,7.367-2.536,5.946,5.946,0,0,1-5.548-4.114,7.791,7.791,0,0,0,1.12.094,6.205,6.205,0,0,0,1.563-.2A5.944,5.944,0,0,1,2.364,11.34v-.072a5.982,5.982,0,0,0,2.68.753A5.945,5.945,0,0,1,3.211,4.084a16.859,16.859,0,0,0,12.234,6.207A6.905,6.905,0,0,1,15.3,8.933a5.941,5.941,0,0,1,10.271-4.06,11.655,11.655,0,0,0,3.765-1.434,5.923,5.923,0,0,1-2.608,3.271,11.871,11.871,0,0,0,3.419-.919,12.876,12.876,0,0,1-2.976,3.069Z" transform="translate(-1.19 -3)"/></svg>