<svg xmlns="http://www.w3.org/2000/svg" width="32.891" height="23.585" viewBox="0 0 32.891 23.585"><defs><style>.a{fill:#3a2f2d;}</style></defs><path class="a" d="M37.2,6.689a4.172,4.172,0,0,0-2.907-2.983C31.727,3,21.445,3,21.445,3S11.16,3,8.6,3.706A4.166,4.166,0,0,0,5.688,6.689,45.034,45.034,0,0,0,5,14.816a45.034,45.034,0,0,0,.688,8.127A4.11,4.11,0,0,0,8.6,25.879c2.565.706,12.85.706,12.85.706s10.285,0,12.85-.706A4.11,4.11,0,0,0,37.2,22.943a45.034,45.034,0,0,0,.688-8.127A45.152,45.152,0,0,0,37.2,6.689ZM18.081,19.8V9.827l8.6,4.989Z" transform="translate(-5 -3)"/></svg>